<svg xmlns="http://www.w3.org/2000/svg" xmlns:xlink="http://www.w3.org/1999/xlink" viewBox="0 0 217.25 140.38"><defs><style>.cls-1{fill:none;}.cls-2{fill:#e62238;}.cls-3{clip-path:url(#clip-path);}.cls-4{fill:#070707;}.cls-5{fill:#73111c;}.cls-6{fill:#030303;}.cls-7{clip-path:url(#clip-path-2);}.cls-8{clip-path:url(#clip-path-3);}.cls-9{fill:#e62139;}.cls-10{fill:#73101c;}.cls-11{clip-path:url(#clip-path-4);}.cls-12{fill:#b9888e;}.cls-13{clip-path:url(#clip-path-5);}.cls-14{fill:#fff;}</style><clipPath id="clip-path" transform="translate(0 0)"><path class="cls-1" d="M7.56,108.54s134.59.51,144,1.28,23.07,3.35,23.93,14.41-32.76,11.94-32.76,11.94H6.91a25.53,25.53,0,0,0,6.27-16.53c0-10-5.62-11.1-5.62-11.1"/></clipPath><clipPath id="clip-path-2" transform="translate(0 0)"><path class="cls-1" d="M210.61,80.07S105.07,80.52,97.7,81.2,79.6,84.17,78.93,94s25.69,10.58,25.69,10.58h106.5a24.15,24.15,0,0,1-4.91-14.65c0-8.9,4.4-9.82,4.4-9.82"/></clipPath><clipPath id="clip-path-3" transform="translate(0 0)"><path class="cls-1" d="M44.74,55.93s101.88.42,109,1.06,17.47,2.75,18.11,11.87-24.79,9.84-24.79,9.84H44.25A22,22,0,0,0,49,65.07c0-8.28-4.25-9.14-4.25-9.14"/></clipPath><clipPath id="clip-path-4" transform="translate(0 0)"><polyline class="cls-1" points="115.25 53.69 25.63 48.06 24.4 45.14 90.1 22.53 181.75 36.59 202.03 45.27 200.69 48.37 185.68 55.17 115.25 53.69"/></clipPath><clipPath id="clip-path-5" transform="translate(0 0)"><path class="cls-1" d="M112.23,47.21S103.86,31.05,83.51,35s-20,6.15-25.69,7.86S30.45,47.51,24.4,45.14c2.11-2.89,22-32.89,22-32.89s9.08,1.9,15.79,1.08S93.61.27,100.06,0s12.17,6.58,12.17,6.58S119.93-.14,126.9,0,148.35,9.75,157,11.06s18.16,2.63,22.11.27C182,15.4,202,45.27,202,45.27s-11.31,3.42-27.1-.92-24.87-12.1-39.48-10.66-23.22,13.52-23.22,13.52"/></clipPath></defs><g id="Layer_2" data-name="Layer 2"><g id="Layer_1-2" data-name="Layer 1"><path class="cls-2" d="M7.56,108.54s134.59.51,144,1.28,23.07,3.35,23.93,14.41-32.76,11.94-32.76,11.94H6.91a25.53,25.53,0,0,0,6.27-16.53c0-10-5.62-11.1-5.62-11.1" transform="translate(0 0)"/><g class="cls-3"><path class="cls-4" d="M3.32,131c44.8,0,44.8.13,89.61.13s44.8,3.07,89.61,3.07L3.32,131" transform="translate(0 0)"/><path class="cls-4" d="M3.32,124.66c53.73,0,53.73.18,107.46.18,35.88,0,35.88,3,71.76,3L3.32,124.66" transform="translate(0 0)"/><path class="cls-4" d="M3.3,118.36C49,117.76,49,117.3,94.65,117.3c43.95,0,43.93,3.66,87.87,4.26L3.3,118.36" transform="translate(0 0)"/><path class="cls-4" d="M3.32,112.07c44.8,0,44.8.13,89.61.13s44.8,3.07,89.61,3.07L3.32,112.07" transform="translate(0 0)"/><path class="cls-5" d="M17.19,108.58l-.11,0s17.57,1.29,40.24,3.55c8.79,0,19.19,0,35.61,0,33.71,0,42.06,1.74,63.2,2.6l13.93.25c-5-3.55-12.62-4.74-18.51-5.23-7.86-.64-103.37-1.11-134.36-1.24" transform="translate(0 0)"/><path class="cls-5" d="M67.53,113.22c11,1.18,22.81,2.56,34,4.11,34.77.34,39,3.25,73.38,4.09a12.31,12.31,0,0,0-4.69-6.24c-5.38-.08-10-.21-14.12-.38l-88.6-1.58" transform="translate(0 0)"/><path class="cls-5" d="M156.76,133.7a3.55,3.55,0,0,0,.29,1.07c1.55-.25,3.12-.55,4.66-.9l-5-.17m-6.69-6.43c4.29,1.7,6.73,3.47,6.65,5.31a5.71,5.71,0,0,0,0,1.11l5.34.09c5.32-1.25,10.2-3.13,12.31-6-3.88,0-7.27-.15-10.32-.28l-14-.25M122,120.48c10.52,1.84,19.6,3.84,25.84,6,4.83.4,9.79.8,16.25,1.06l10.38.19a5.14,5.14,0,0,0,1-3.06c0-.14,0-.28,0-.42a12.3,12.3,0,0,0-.54-2.8l-52.94-1" transform="translate(0 0)"/><path class="cls-6" d="M156.76,133.69h0l5,.17.39-.09-5.34-.09" transform="translate(0 0)"/><path class="cls-6" d="M164.09,127.52c3,.13,6.44.23,10.32.28l.06-.09-10.38-.19m-16.25-1.06c.79.27,1.53.54,2.23.81l14,.25c-6.46-.26-11.42-.66-16.25-1.06" transform="translate(0 0)"/><path class="cls-6" d="M101.56,117.33c7.14,1,14,2,20.44,3.15l52.94,1h0c-34.37-.84-38.61-3.75-73.38-4.09" transform="translate(0 0)"/><path class="cls-6" d="M156.13,114.8c4.13.17,8.74.3,14.12.38h0l-.19-.13h0l-13.93-.25m-98.81-2.64c3.3.33,6.72.69,10.21,1.06l88.6,1.58c-21.14-.86-29.49-2.6-63.2-2.6-16.42,0-26.82,0-35.61,0" transform="translate(0 0)"/></g><path class="cls-4" d="M1.74,105.24c28.67-3.3,28.84,0,57.73,0,27.24,0,54.53-.12,57.72-.12,6.57,0,59.88.84,63.43,1.66s18.76,4.77,18.76,15.44-19.82,14.9-28.3,14.9-77.69,2.22-92.19,2.22-46.56-.09-48.13.18a123.8,123.8,0,0,1-29.57,0c-1.59-.19-1.59-3.42,0-3.5,32.06-1.6,32.1.28,64.2.28s32.1.19,64.19-.11c17.17-.16,30.3-.89,29.53-12S146.05,110.73,137.56,110c-4.11-.38-36-1-67.88-1.23-34-.24-34.07,2.77-67.88-.31C-.1,108.24.1,105.43,1.74,105.24Z" transform="translate(0 0)"/><path class="cls-2" d="M210.61,80.07S105.07,80.52,97.7,81.2,79.6,84.17,78.93,94s25.69,10.58,25.69,10.58h106.5a24.15,24.15,0,0,1-4.91-14.65c0-8.9,4.4-9.82,4.4-9.82" transform="translate(0 0)"/><g class="cls-7"><path class="cls-4" d="M217.25,99.42c-17.06,0-17.06,1.47-34.12,1.47-29,0-29-1-57.95-1s-29,.32-58,.32l150-.84" transform="translate(0 0)"/><path class="cls-4" d="M217.22,94.12c-32.78.86-32.74,3.18-65.53,3.18-42.24,0-42.22-1.8-84.45-2.65l150-.53" transform="translate(0 0)"/><path class="cls-4" d="M217.25,88.83c-24.54,0-24.54,1.47-49.08,1.47-50.48,0-50.48-.94-100.95-.94l150-.53" transform="translate(0 0)"/><path class="cls-4" d="M217.25,83.54c-37.51,0-37.51,1.47-75,1.47s-37.51-1-75-1l150-.52" transform="translate(0 0)"/><path class="cls-5" d="M199.35,80.46c-20.27.47-39,.56-54.17.56l-12.4,0H122.55c-7.2,0-12,0-13.89.23A28.77,28.77,0,0,0,98.37,84l69.43-.24c13.81-1.61,25.73-2.73,31.55-3.25" transform="translate(0 0)"/><path class="cls-5" d="M97.65,84.36A11.67,11.67,0,0,0,93,89.27l36-.13c9.22-1.6,19.29-3,28.94-4.24-4.46.07-9.59.11-15.73.11-23.38,0-32.19-.37-44.59-.65" transform="translate(0 0)"/><path class="cls-5" d="M94,100.12h-.46q.13.16.3.33a3.4,3.4,0,0,1,.16-.34M91.8,95.4a7.77,7.77,0,0,0,1.69,4.71H94c.86-1.48,3.29-2.91,6.88-4.27-2.79-.15-5.76-.3-9.06-.44m1.1-5.94A12.46,12.46,0,0,0,91.81,94c0,.2,0,.4,0,.59l13,0A184.43,184.43,0,0,1,124.49,90c-10-.17-18.6-.37-31.59-.49" transform="translate(0 0)"/><path class="cls-6" d="M94,100.11h-.49l0,0H94" transform="translate(0 0)"/><path class="cls-6" d="M104.75,94.52l-13,0c0,.29,0,.57,0,.84,3.3.14,6.27.29,9.06.44,1.18-.45,2.48-.89,3.89-1.32" transform="translate(0 0)"/><path class="cls-6" d="M129,89.14l-36,.13a1.14,1.14,0,0,0-.1.19c13,.12,21.63.32,31.59.49l4.54-.81" transform="translate(0 0)"/><path class="cls-6" d="M167.8,83.71,98.37,84l-.72.41c12.4.28,21.21.65,44.59.65,6.14,0,11.27,0,15.73-.11,3.34-.42,6.64-.82,9.83-1.19" transform="translate(0 0)"/></g><path class="cls-4" d="M215.18,77.13c-45.25-1.56-85.39,0-90.54,0s-46.95.58-49.74,1.31-14.73,4.25-14.73,13.7,15.56,13.23,22.21,13.23,60.92,2.1,72.29,2.1,36.52-.31,37.75-.07a89.41,89.41,0,0,0,23.16-.14c1.4-.19,1.43-2.58,0-2.62-30.52-.86-42.54-.57-58.5-.27-10.36.19-22.37.39-42.18.26-13.82-.08-23.7-.88-23.1-10.68S102,81.9,108.66,81.22C111.26,81,120,81,132.78,81c20,0,49.93.08,82.35-1,1.72-.05,1.51-2.83.05-2.88" transform="translate(0 0)"/><path class="cls-2" d="M44.74,55.93s101.88.42,109,1.06,17.47,2.75,18.11,11.87-24.79,9.84-24.79,9.84H44.25A22,22,0,0,0,49,65.07c0-8.28-4.25-9.14-4.25-9.14" transform="translate(0 0)"/><g class="cls-8"><path class="cls-4" d="M37,73.26c24.55.57,24.51,1.25,49.06,1.25,46.29,0,46.3,1.85,92.6,1.28L37,73.26" transform="translate(0 0)"/><path class="cls-4" d="M37,68.12c35.42,0,35.42.1,70.84.1s35.42,2.43,70.83,2.43L37,68.12" transform="translate(0 0)"/><path class="cls-4" d="M37,63c35.81,0,35.81.1,71.63.1,35,0,35,2.43,70,2.43L37,63" transform="translate(0 0)"/><path class="cls-4" d="M37,57.84c48.72,0,48.72.1,97.44.1,22.12,0,22.12,2.43,44.23,2.43L37,57.84" transform="translate(0 0)"/><path class="cls-5" d="M57,56.4c3.72.32,9.27.82,15.88,1.47,18.15,0,28.94.07,61.53.07,7.62,0,12.61.29,16.79.67a33.43,33.43,0,0,0-8.09-1.67c-1.52-.15-5.22-.19-10.66-.19-3.65,0-8.1,0-13.2,0s-10.86,0-17.14,0C89,56.83,73.58,56.74,57,56.4" transform="translate(0 0)"/><path class="cls-5" d="M80.28,58.61c11.26,1.18,24.43,2.71,36.67,4.52,19.74.26,26.51,1.41,41.27,2l.65,0a10.61,10.61,0,0,0-4.76-5.23L80.28,58.61" transform="translate(0 0)"/><path class="cls-5" d="M150.48,70.15c3.9,1.37,6.42,2.8,7,4.3a6.41,6.41,0,0,0,2.06-4.11l-1.76-.06-7.33-.13M126,64.57c9.48,1.6,17.86,3.37,23.61,5.29,2.51.15,5.18.3,8.17.42l1.76,0a9.68,9.68,0,0,0,0-1.8,10.7,10.7,0,0,0-.74-3.34l-.65,0L126,64.57" transform="translate(0 0)"/><path class="cls-6" d="M157.81,70.28l1.76.06v0l-1.76,0m-8.17-.42.84.29,7.33.13c-3-.12-5.66-.27-8.17-.42" transform="translate(0 0)"/><path class="cls-6" d="M158.22,65.14l.65,0h0l-.65,0m-41.27-2c3.1.47,6.15.94,9.08,1.44l32.19.57c-14.76-.6-21.53-1.75-41.27-2" transform="translate(0 0)"/><path class="cls-6" d="M72.92,57.87c2.33.23,4.8.47,7.36.74l73.83,1.32a17.81,17.81,0,0,0-2.87-1.32c-4.18-.38-9.17-.67-16.79-.67-32.59,0-43.38,0-61.53-.07" transform="translate(0 0)"/></g><path class="cls-4" d="M40.34,53.28c43.67-1.41,82.42,0,87.38,0s45.38.35,48.07,1,13.94,4.06,13.94,12.62-14.79,12.17-21.21,12.17-58.81,1.51-69.78,1.51-35.27-.15-36.46.06a85.56,85.56,0,0,1-22.36.14c-1.27-.17-1.27-2.74,0-2.78,29.45-.78,41.06-.5,56.46-.23,10,.17,21.6.35,40.72.24,13.16-.08,23.08-.6,22.5-9.48s-10-11-16.46-11.57c-2.55-.25-11.18-.2-23.86-.15-19.28.07-47.94.14-78.92-.81-1.54,0-1.36-2.66,0-2.7" transform="translate(0 0)"/><polyline class="cls-9" points="115.25 53.69 25.63 48.06 24.4 45.14 90.1 22.53 181.75 36.59 202.03 45.27 200.69 48.37 185.68 55.17 115.25 53.69"/><path class="cls-10" d="M31.59,48.44l.05-.07.13.08h-.18M69.2,50.8c8.59-2.28,16.68-4.26,22.07-4.26a15.64,15.64,0,0,1,1.72.08c6.83.68,11.09,3.54,13.63,6.23.1.11.2.21.29.32l-.72-.05c-2.49-2.59-6.6-5.34-13.25-6A14.72,14.72,0,0,0,91.27,47h0c-5,0-12.45,1.75-20.47,3.86l-1.59-.1m45.51,2.86c.22-.27.46-.54.71-.81,2.54-2.69,6.8-5.55,13.63-6.23a15.83,15.83,0,0,1,1.73-.08c6.35,0,16.46,2.76,26.71,5.5,3.58,1,7.17,1.92,10.61,2.76l-2.26,0c-2.78-.71-5.63-1.47-8.48-2.23C147.13,49.78,137,47,130.79,47h0a14.79,14.79,0,0,0-1.68.08c-6.29.63-10.31,3.12-12.83,5.58-.34.34-.65.67-.94,1h-.08l-.54,0M60.15,50.23l4.4-1.17c10.25-2.75,20.37-5.51,26.72-5.51.61,0,1.18,0,1.72.08,6.83.68,11.09,3.54,13.63,6.24a17,17,0,0,1,2.54,3.44l-.59,0a17.48,17.48,0,0,0-2.31-3.06c-2.48-2.62-6.61-5.41-13.32-6.08-.52-.05-1.08-.08-1.67-.08h0c-6.22,0-16.34,2.74-26.57,5.49l-3,.79-1.57-.1m52.61,3.3a17.13,17.13,0,0,1,2.66-3.66c2.54-2.7,6.8-5.56,13.63-6.24.54-.05,1.12-.08,1.73-.08,6.35,0,16.46,2.76,26.71,5.51s20.6,5.48,27.31,5.48h0a17.88,17.88,0,0,0,2.63-.17L186,55q-.6,0-1.23,0c-6.84,0-17.2-2.75-27.45-5.5S137,44.05,130.79,44.05h0c-.6,0-1.16,0-1.68.08-6.29.63-10.31,3.12-12.83,5.59a16.83,16.83,0,0,0-3,3.85l-.55,0M42.39,49.12c6.31-.86,14.27-3,22.16-5.09,10.25-2.75,20.37-5.5,26.72-5.51.61,0,1.18,0,1.72.08,6.83.69,11.09,3.55,13.63,6.24A15.69,15.69,0,0,1,110,50.07l-.48.16,0-.11-.12-.3c-.12-.27-.29-.66-.55-1.13a17.37,17.37,0,0,0-2.56-3.51c-2.48-2.62-6.61-5.4-13.32-6.08-.52-.05-1.08-.08-1.67-.08h0C85,39,74.91,41.76,64.68,44.51c-7,1.87-14,3.75-20,4.75l-2.34-.14m70.13,1.11-.48-.16a15.69,15.69,0,0,1,3.38-5.23c2.54-2.69,6.8-5.55,13.63-6.24.54-.05,1.12-.08,1.73-.08,6.35,0,16.46,2.76,26.71,5.51s20.6,5.49,27.31,5.49h0a10.83,10.83,0,0,0,5.58-1.15l.26.42A11.38,11.38,0,0,1,184.81,50c-6.84,0-17.2-2.76-27.45-5.51S137,39,130.79,39h0c-.6,0-1.16,0-1.68.08-6.29.63-10.31,3.12-12.83,5.59a15.65,15.65,0,0,0-3.71,5.43l0,.11M90.1,22.53,24.4,45.14l1.23,2.92,89.62,5.63,70.43,1.49,15-6.81,1.34-3.1-20.28-8.68L90.1,22.53" transform="translate(0 0)"/><g class="cls-11"><path class="cls-12" d="M31.64,48.37l-.05.07h.18l-.13-.08m59.63-9.85c-6.35,0-16.47,2.76-26.72,5.51-7.89,2.12-15.85,4.23-22.16,5.09l2.34.14c5.94-1,13-2.88,20-4.75C74.91,41.76,85,39,91.26,39h0c.59,0,1.15,0,1.67.08,6.71.68,10.84,3.46,13.32,6.08a17.37,17.37,0,0,1,2.56,3.51c.26.47.43.86.55,1.13l.12.3,0,.11.48-.16a15.69,15.69,0,0,0-3.38-5.23c-2.54-2.69-6.8-5.55-13.63-6.24-.54-.05-1.11-.08-1.72-.08" transform="translate(0 0)"/><path class="cls-12" d="M91.27,43.55c-6.35,0-16.47,2.76-26.72,5.51l-4.4,1.17,1.57.1,3-.79C74.91,46.79,85,44.05,91.25,44.05h0c.59,0,1.15,0,1.67.08,6.71.67,10.84,3.46,13.32,6.08a17.48,17.48,0,0,1,2.31,3.06l.59,0a17,17,0,0,0-2.54-3.44c-2.54-2.7-6.8-5.56-13.63-6.24-.54-.05-1.11-.08-1.72-.08" transform="translate(0 0)"/><path class="cls-12" d="M91.27,46.54c-5.39,0-13.48,2-22.07,4.26l1.59.1c8-2.11,15.49-3.86,20.47-3.86h0a14.72,14.72,0,0,1,1.67.08c6.65.66,10.76,3.41,13.25,6l.72.05c-.09-.11-.19-.21-.29-.32-2.54-2.69-6.8-5.55-13.63-6.23a15.64,15.64,0,0,0-1.72-.08" transform="translate(0 0)"/><path class="cls-12" d="M130.78,38.52c-.61,0-1.19,0-1.73.08-6.83.69-11.09,3.55-13.63,6.24A15.69,15.69,0,0,0,112,50.07l.48.16,0-.11a15.65,15.65,0,0,1,3.71-5.43c2.52-2.47,6.54-5,12.83-5.59.52-.05,1.08-.08,1.68-.08h0c6.22,0,16.34,2.74,26.57,5.49S178,50,184.81,50a11.38,11.38,0,0,0,5.86-1.23l-.26-.42a10.83,10.83,0,0,1-5.58,1.15h0c-6.71,0-17.07-2.74-27.31-5.49s-20.36-5.5-26.71-5.51" transform="translate(0 0)"/><path class="cls-12" d="M130.78,43.55c-.61,0-1.19,0-1.73.08-6.83.68-11.09,3.54-13.63,6.24a17.13,17.13,0,0,0-2.66,3.66l.55,0a16.83,16.83,0,0,1,3-3.85c2.52-2.47,6.54-5,12.83-5.59.52-.05,1.08-.08,1.68-.08h0c6.22,0,16.34,2.74,26.57,5.49S178,55,184.81,55q.63,0,1.23,0l1.42-.64a17.88,17.88,0,0,1-2.63.17h0c-6.71,0-17.08-2.74-27.31-5.48s-20.36-5.51-26.71-5.51" transform="translate(0 0)"/><path class="cls-12" d="M130.78,46.54a15.83,15.83,0,0,0-1.73.08c-6.83.68-11.09,3.54-13.63,6.23-.25.27-.49.54-.71.81l.54,0h.08c.29-.32.6-.65.94-1,2.52-2.46,6.54-5,12.83-5.58a14.79,14.79,0,0,1,1.68-.08h0c6.22,0,16.34,2.74,26.57,5.49,2.85.76,5.7,1.52,8.48,2.23l2.26,0c-3.44-.84-7-1.8-10.61-2.76-10.25-2.74-20.36-5.5-26.71-5.5" transform="translate(0 0)"/></g><path class="cls-9" d="M112.23,47.21S103.86,31.05,83.51,35s-20,6.15-25.69,7.86S30.45,47.51,24.4,45.14c2.11-2.89,22-32.89,22-32.89s9.08,1.9,15.79,1.08S93.61.27,100.06,0s12.17,6.58,12.17,6.58S119.93-.14,126.9,0,148.35,9.75,157,11.06s18.16,2.63,22.11.27C182,15.4,202,45.27,202,45.27s-11.31,3.42-27.1-.92-24.87-12.1-39.48-10.66S112.23,47.21,112.23,47.21Z" transform="translate(0 0)"/><g class="cls-13"><path class="cls-4" d="M115.25,47.16c-.47-20.88-.51-20.88-1-41.76l-3,.07c.47,20.88.5,20.88,1,41.76l3-.07Z" transform="translate(0 0)"/></g><path class="cls-4" d="M200.67,48.61c-38.52-2.6-38.63,1.56-77.15-1-6-.4-4.29-4.67-10.36-4.67s-4.39,4.92-10.32,5.3C64.31,50.65,64,43.51,25.5,46.27c-3.45.24-3.78,3.8-5.08,7-.64,1.55-.19,3.65,1.47,3.74,30.23,1.7,30.26,1.18,60.53,1.21s30.27-.35,60.54-.32,30.29.63,60.51-1.08c1.83-.1,1.8-1.07,1.9-2.89C205.57,50.41,204,48.84,200.67,48.61Z" transform="translate(0 0)"/><path class="cls-14" d="M41.24,39.69c-.53.48-.63-1.64-.45-2.34,2.49-4.15,8.63-20.86,8.7-21,.66.31.87,1.19,1.45,1.62C50.86,18.11,43.74,35.54,41.24,39.69Z" transform="translate(0 0)"/><path class="cls-4" d="M107.56,10.93c-.79-3.33-1.58-4.1-5.4-4.25S85,15.41,77.33,15.16s-11.07.62-8.07,2S97.18,9.5,101.43,9.58,107.81,13.31,107.56,10.93Z" transform="translate(0 0)"/><path class="cls-4" d="M106,17.67c1,0,1.17-1.17.78-1.33s-.94-3.59-7.82-1.56-10,1.33-14.22,2.89-9.6,2.08-7.61,2.72,4.13-1.21,8.75-1.5,12.54-3.27,14.78-3.27S103.89,17.59,106,17.67Z" transform="translate(0 0)"/><path class="cls-4" d="M78.86,26.17c3-.14,11.83-3,17.8-2.63s12.23,4,12.13,4.47-2.93-1.33-5.46-1.79S101,25,97.57,25.07s-17.19,2.53-19.92,2.3S78.86,26.17,78.86,26.17Z" transform="translate(0 0)"/><path class="cls-4" d="M120.63,11.07c.79-3.34,1.11-3.17,4.94-3.32s17.13,6.82,24.75,6.58,10.62.39,7.62,1.73S130.5,9.22,126.25,9.3,120.38,13.44,120.63,11.07Z" transform="translate(0 0)"/><path class="cls-4" d="M121.7,17.67c-1,0-1-.69-.59-.85s.66-3.76,7.54-1.73,10.24.63,14.46,2.19,9.53,2.73,7.54,3.37-4.23-1.06-8.85-1.34S129.28,15.92,127,15.92,123.79,17.59,121.7,17.67Z" transform="translate(0 0)"/><path class="cls-4" d="M155.25,26.36c-3.69-.14-14.37-3.7-21.62-3.36s-14.13,4.35-14,4.83,3-.42,6-.9S128.36,25,132.54,25s20.86,2,24.18,1.8S157.29,26.63,155.25,26.36Z" transform="translate(0 0)"/></g></g></svg>