<svg width="30" height="24" viewBox="0 0 30 24" fill="none" xmlns="http://www.w3.org/2000/svg">
<path d="M29.542 2.8509C28.4556 3.31954 27.2734 3.65682 26.0556 3.78818C27.3199 3.03706 28.2667 1.85043 28.7183 0.450902C27.5319 1.15666 26.2322 1.65155 24.8769 1.91362C24.3104 1.30804 23.6253 0.825599 22.8643 0.496372C22.1032 0.167145 21.2825 -0.00181698 20.4532 1.47351e-05C17.0982 1.47351e-05 14.4 2.71954 14.4 6.05682C14.4 6.52545 14.4568 6.99409 14.5491 7.44498C9.52544 7.18226 5.04497 4.78226 2.06627 1.10771C1.52352 2.03474 1.2391 3.09028 1.2426 4.16451C1.2426 6.26628 2.31124 8.11954 3.94083 9.20948C2.98049 9.17166 2.04264 8.9077 1.20355 8.43906V8.51362C1.20355 11.4568 3.28402 13.8959 6.0568 14.4568C5.53618 14.592 5.00061 14.6612 4.46272 14.6627C4.06864 14.6627 3.69586 14.6237 3.31952 14.5704C4.08639 16.9704 6.31952 18.7136 8.97869 18.7704C6.89822 20.4 4.29231 21.3586 1.46272 21.3586C0.955029 21.3586 0.48639 21.3408 0 21.284C2.68402 23.0059 5.86864 24 9.29822 24C20.4319 24 26.5242 14.7763 26.5242 6.77043C26.5242 6.5077 26.5242 6.24498 26.5065 5.98226C27.6852 5.11954 28.7183 4.0509 29.542 2.8509Z" fill="white"/>
</svg>
