<svg xmlns="http://www.w3.org/2000/svg" xmlns:xlink="http://www.w3.org/1999/xlink" viewBox="0 0 287.93 174.31"><defs><style>.cls-1,.cls-4,.cls-9{opacity:0.5;}.cls-2{fill:#e62139;}.cls-3{clip-path:url(#clip-path);}.cls-4,.cls-6{fill:none;stroke-miterlimit:10;}.cls-4{stroke:#fff;stroke-width:0.5px;}.cls-5{clip-path:url(#clip-path-2);}.cls-6{stroke:#070707;stroke-width:3px;}.cls-7{fill:#070707;}.cls-8{fill:#fff;}.cls-9{fill:url(#linear-gradient);}.cls-10{clip-path:url(#clip-path-3);}.cls-11{fill:url(#linear-gradient-2);}</style><clipPath id="clip-path"><polygon class="cls-1" points="160.33 160.21 79.74 155.16 78.64 152.53 137.72 132.2 220.12 144.84 238.36 152.65 237.15 155.43 223.65 161.55 160.33 160.21"/></clipPath><clipPath id="clip-path-2"><path class="cls-2" d="M157.61,154.39s-7.52-14.53-25.82-10.94-18,5.52-23.1,7.06-24.61,4.15-30,2C80.54,149.93,98.4,123,98.4,123s8.16,1.72,14.2,1,28.27-11.74,34.07-12,10.94,5.91,10.94,5.91,6.92-6,13.19-5.92,19.29,8.76,27.1,10,16.32,2.36,19.87.23c2.6,3.67,20.59,30.53,20.59,30.53s-10.18,3.07-24.37-.83-22.36-10.89-35.5-9.58S157.61,154.39,157.61,154.39Z"/></clipPath><linearGradient id="linear-gradient" x1="65.94" y1="59.24" x2="162.21" y2="156.5" gradientUnits="userSpaceOnUse"><stop offset="0" stop-color="#e62139"/><stop offset="1" stop-color="#e62139" stop-opacity="0"/></linearGradient><clipPath id="clip-path-3"><path class="cls-2" d="M20.45,156.54c2.82,3.31,7.86-.3,6.89-2.74s-12-38.2-2.87-64.85S46.13,50.84,50.93,46.8c1-.88,1-4.16-.06-5-2.56-2.09-3.94-6.24-6.44-4.07-22.6,19.6-24.75,32.53-27.7,52.36S13.4,129,15,134.64,13.13,148,20.45,156.54Z"/></clipPath><linearGradient id="linear-gradient-2" x1="203.33" y1="103.73" x2="203.33" y2="30.75" gradientUnits="userSpaceOnUse"><stop offset="0" stop-color="#e62139" stop-opacity="0.4"/><stop offset="1" stop-color="#e62139" stop-opacity="0"/></linearGradient></defs><g id="Layer_2" data-name="Layer 2"><g id="Layer_1-2" data-name="Layer 1"><polygon class="cls-2" points="160.33 160.21 79.74 155.16 78.64 152.53 137.72 132.2 220.12 144.84 238.36 152.65 237.15 155.43 223.65 161.55 160.33 160.21"/><polygon class="cls-1" points="160.33 160.21 79.74 155.16 78.64 152.53 137.72 132.2 220.12 144.84 238.36 152.65 237.15 155.43 223.65 161.55 160.33 160.21"/><g class="cls-3"><path class="cls-4" d="M155.39,157s-2.93-8.94-15.1-10.16-47,13.88-55.26,8.75"/><path class="cls-4" d="M155.39,161.55s-2.93-8.93-15.1-10.16-47,13.88-55.26,8.75"/><path class="cls-4" d="M155.39,164.24s-2.93-8.94-15.1-10.16S93.24,168,85,162.83"/><path class="cls-4" d="M157.66,157s2.93-8.94,15.1-10.16,47.05,13.88,55.26,8.75"/><path class="cls-4" d="M157.66,161.55s2.93-8.93,15.1-10.16,47.05,13.88,55.26,8.75"/><path class="cls-4" d="M157.66,164.24s2.93-8.94,15.1-10.16S219.81,168,228,162.83"/></g><path class="cls-2" d="M157.61,154.39s-7.52-14.53-25.82-10.94-18,5.52-23.1,7.06-24.61,4.15-30,2C80.54,149.93,98.4,123,98.4,123s8.16,1.72,14.2,1,28.27-11.74,34.07-12,10.94,5.91,10.94,5.91,6.92-6,13.19-5.92,19.29,8.76,27.1,10,16.32,2.36,19.87.23c2.6,3.67,20.59,30.53,20.59,30.53s-10.18,3.07-24.37-.83-22.36-10.89-35.5-9.58S157.61,154.39,157.61,154.39Z"/><g class="cls-5"><path class="cls-6" d="M159,154.38c-.42-18.78-.46-18.78-.87-37.55"/></g><path class="cls-7" d="M237.13,155.65c-34.64-2.35-34.73,1.39-69.37-.93-5.4-.36-3.85-4.2-9.31-4.2s-3.95,4.42-9.28,4.76c-34.64,2.2-34.92-4.22-69.54-1.74-3.1.22-3.39,3.42-4.57,6.29-.57,1.39-.18,3.31,1.33,3.36,40.79,1.55,40.81,1.08,81.64,1.12s40.87,1.27,81.67-.26c1.64-.06.2-2.07.29-3.71C240.17,157.19,240.11,155.85,237.13,155.65Z"/><path class="cls-8" d="M93.79,147.62c-.48.44-.58-1.47-.41-2.1,2.24-3.73,7.76-18.75,7.82-18.87.6.27.78,1.07,1.3,1.46C102.44,128.23,96,143.89,93.79,147.62Z"/><path class="cls-7" d="M153.41,121.77c-.7-3-1.42-3.69-4.86-3.83s-15.46,7.85-22.31,7.63-10,.56-7.26,1.77,25.1-6.86,28.92-6.78S153.64,123.9,153.41,121.77Z"/><path class="cls-7" d="M152,127.83c.93,0,1.06-1.06.7-1.2s-.84-3.23-7-1.4-9,1.19-12.79,2.6-8.63,1.86-6.84,2.44,3.7-1.09,7.86-1.34S145.18,126,147.19,126,150.12,127.75,152,127.83Z"/><path class="cls-7" d="M127.61,135.47c2.73-.13,10.64-2.66,16-2.37s11,3.61,10.91,4-2.64-1.2-4.91-1.62-2.09-1.06-5.18-1-15.46,2.27-17.91,2.07S127.61,135.47,127.61,135.47Z"/><path class="cls-7" d="M165.17,121.89c.7-3,1-2.85,4.44-3s15.4,6.13,22.25,5.92,9.55.34,6.85,1.55-24.67-6.15-28.49-6.08S164.94,124,165.17,121.89Z"/><path class="cls-7" d="M166.13,127.83c-.92,0-.88-.63-.53-.77s.59-3.38,6.77-1.55,9.21.56,13,2,8.57,2.45,6.78,3-3.81-.95-8-1.21-11.26-3-13.27-3S168,127.75,166.13,127.83Z"/><path class="cls-7" d="M196.3,135.64c-3.32-.13-12.93-3.32-19.45-3s-12.7,3.92-12.59,4.34,2.65-.38,5.42-.81,2.43-1.74,6.19-1.71,18.76,1.83,21.75,1.61S198.13,135.89,196.3,135.64Z"/><path class="cls-7" d="M255.86,104.94c.75-1.43,1.19-1.2,1.93-2.64a2.45,2.45,0,0,0-1-2.78c-9.19-6.3-9.47-5.89-18.66-12.19-.9-.62-2-.85-2.59.06-.91,1.39-.55,1.63-1.46,3a1.71,1.71,0,0,0,.4,2.5c9.36,6.34,9.25,6.5,18.6,12.84A2,2,0,0,0,255.86,104.94Z"/><path class="cls-2" d="M284.83,126.58c1.26-2.25,1.5-2.11,2.76-4.36.76-1.37.19-2.68-1.1-3.59-14.38-10.15-13.78-11-28.16-21.14-1.4-1-3.44,0-4.41,1.38-1.52,2.19-1.87,1.94-3.38,4.13a3.2,3.2,0,0,0,.92,4.35c14.63,10.21,14.73,10.05,29.36,20.26A2.61,2.61,0,0,0,284.83,126.58Z"/><path class="cls-2" d="M241.32,45.56a40.38,40.38,0,0,1,1.59,32c-1.74,5.22-3.6,10.5-7.26,14.72s-8.27,7-13.39,9.6a41.66,41.66,0,0,1-15.74,4.53c-5.58.38-11.38.58-16.6-1.16s-9.66-5.49-13.88-9.15a41.81,41.81,0,0,1-10.45-12.73c-2.56-5.12-4.53-10.55-4.9-15.93-.39-5.58,1.06-11.18,2.8-16.4a42.09,42.09,0,0,1,8.38-14.13c3.54-4.08,7.45-8.22,12.57-10.77a43.73,43.73,0,0,1,47.13,6C235.65,35.69,238.76,40.44,241.32,45.56ZM171.39,80.48A36.06,36.06,0,0,0,183.61,94.6,37.18,37.18,0,0,0,201.34,101c6.09.38,12.3-1.75,18.14-4.67s11-6.79,14.34-11.89a36.74,36.74,0,0,0,5.72-17.83c.38-6.09-1.67-12-4.59-17.85s-6.34-11.16-11.44-14.52a36.3,36.3,0,0,0-17.8-5.46c-6.09-.38-12,1.25-17.88,4.17S177,39.53,173.61,44.63a36.48,36.48,0,0,0-6.19,17.61A36,36,0,0,0,171.39,80.48Z"/><path class="cls-9" d="M60.07,67.36l46,103.4s48,3.55,84.88-37c-42.28-61.9-90.85-111-90.85-111Z"/><path class="cls-2" d="M53.23,44.35s.54,17.53,6.84,23S89.66,75,97.87,63.52s13.15-21.91,11-27.12-2-7.24-8.76-13.69C94.7,17.59,81.17,17.12,76.78,17S53.23,44.35,53.23,44.35Z"/><ellipse class="cls-7" cx="32.3" cy="157.96" rx="32.3" ry="16.35"/><ellipse class="cls-2" cx="24.27" cy="154.73" rx="6.57" ry="3.52"/><path class="cls-2" d="M20.45,156.54c2.82,3.31,7.86-.3,6.89-2.74s-12-38.2-2.87-64.85S46.13,50.84,50.93,46.8c1-.88,1-4.16-.06-5-2.56-2.09-3.94-6.24-6.44-4.07-22.6,19.6-24.75,32.53-27.7,52.36S13.4,129,15,134.64,13.13,148,20.45,156.54Z"/><g class="cls-10"><path class="cls-7" d="M1.44,150.5c11.42,0,11.42,2.28,22.83,2.28,5.24,0,5.24,2.84,10.47,2.84"/><path class="cls-7" d="M1.44,144.38c11.42,0,11.42,2.29,22.83,2.29,5.24,0,5.24,2.84,10.47,2.84"/><path class="cls-7" d="M1.44,138.27c11.42,0,11.42,2.28,22.83,2.28,5.24,0,5.24,2.84,10.47,2.84"/><path class="cls-7" d="M1.44,132.15c11.42,0,11.42,2.29,22.83,2.29,5.24,0,5.24,2.83,10.47,2.83"/><path class="cls-7" d="M1.44,126c11.42,0,11.42,2.29,22.83,2.29,5.24,0,5.24,2.84,10.47,2.84"/><path class="cls-7" d="M1.44,119.92c11.42,0,11.42,2.28,22.83,2.28,5.24,0,5.24,2.84,10.47,2.84"/><path class="cls-7" d="M1.44,113.8c11.42,0,11.42,2.29,22.83,2.29,5.24,0,5.24,2.84,10.47,2.84"/><path class="cls-7" d="M1.44,107.69c11.42,0,11.42,2.28,22.83,2.28,5.24,0,5.24,2.84,10.47,2.84"/><path class="cls-7" d="M1.44,101.57c11.42,0,11.42,2.29,22.83,2.29,5.24,0,5.24,2.83,10.47,2.83"/><path class="cls-7" d="M1.44,95.46c11.42,0,11.42,2.28,22.83,2.28,5.24,0,5.24,2.84,10.47,2.84"/><path class="cls-7" d="M1.44,89.34c11.42,0,11.42,2.29,22.83,2.29,5.24,0,5.24,2.83,10.47,2.83"/><path class="cls-7" d="M1.44,83.22c11.42,0,11.42,2.29,22.83,2.29,5.24,0,5.24,2.84,10.47,2.84"/><path class="cls-7" d="M1.44,77.11c11.42,0,11.42,2.28,22.83,2.28,5.24,0,5.24,2.84,10.47,2.84"/><path class="cls-7" d="M1.44,71c11.42,0,11.42,2.29,22.83,2.29,5.24,0,5.24,2.83,10.47,2.83"/><path class="cls-7" d="M8.87,64.88c11.42,0,11.42,2.28,22.83,2.28,5.24,0,5.24,2.84,10.47,2.84"/><path class="cls-7" d="M14.07,58.76c11.42,0,11.42,2.29,22.84,2.29,5.23,0,5.23,2.83,10.47,2.83"/><path class="cls-7" d="M25.13,52.64c11.42,0,11.42,2.29,22.84,2.29,5.23,0,5.23,2.84,10.47,2.84"/><path class="cls-7" d="M16.23,46.53c11.42,0,11.42,2.28,22.83,2.28,5.24,0,5.24,2.84,10.47,2.84"/><path class="cls-7" d="M30.3,40.41c11.42,0,11.42,2.29,22.84,2.29,5.23,0,5.23,2.84,10.47,2.84"/><path class="cls-7" d="M1.44,34.3c11.42,0,11.42,2.28,22.83,2.28,5.24,0,5.24,2.84,10.47,2.84"/></g><path class="cls-7" d="M56.05,0c-7.11,0-14.3,1.9-19,6.56s-7.42,11.85-7.42,19,4,13.08,8.64,17.74,10.63,9.06,17.74,9.06,12.13-5.35,16.79-10,11-9.69,11-16.79S79,11.89,74.34,7.23A25.6,25.6,0,0,0,56.05,0Z"/><path class="cls-7" d="M56.05,0c-7.11,0-14.3,1.9-19,6.56s-7.42,11.85-7.42,19,4,13.08,8.64,17.74,10.63,9.06,17.74,9.06,12.13-5.35,16.79-10,11-9.69,11-16.79S79,11.89,74.34,7.23A25.6,25.6,0,0,0,56.05,0Z"/><path class="cls-8" d="M60.86,11.07a2,2,0,0,0,.34-4A28.46,28.46,0,0,0,49.72,5.86C41.11,6.92,33.86,14,34,20.67s2.41-8.62,11.48-8.77C50.54,11.82,56.56,11.59,60.86,11.07Z"/><path class="cls-8" d="M58.6,156.78c-.17-3.36-8.08-6.05-10.62-7.12-.52-.86.36-2.14,1.16-2.75,1,.45,11.49,5,11.76,10.23C60.81,158,59.16,157.61,58.6,156.78Z"/><circle class="cls-11" cx="203.33" cy="66.65" r="38.13"/><path class="cls-8" d="M203.42,94.91c.25-1,.38-1,.64-2,.2-.8.76-1,1.58-1.08,3.13-.35,8.83-3.76,12.38-6.07,1.95.35.85,1.94,1.93,3.6a1.73,1.73,0,0,1-.5,2.59c-3.15,1.87-9.19,5.69-14,5.92C204.09,97.94,203.09,96.2,203.42,94.91Z"/></g></g></svg>