<svg xmlns="http://www.w3.org/2000/svg" xmlns:xlink="http://www.w3.org/1999/xlink" viewBox="0 0 151.02 144.74"><defs><style>.cls-1{fill:none;}.cls-2{fill:#e62139;}.cls-3{fill:#fff;}.cls-4{clip-path:url(#clip-path);}</style><clipPath id="clip-path"><path class="cls-1" d="M72.51,15.68c-8.09,2-11.46.9-14,6.39s2.69,38.14-.26,54.31-5.05,29.75.86,30.4,74.33-.39,77.33-1.74,2.52-24.56,2-28.07S130.22,51.44,132,37.69s1.53-35.09-1.17-35S101.84,8.58,72.51,15.68Z"/></clipPath></defs><g id="Layer_2" data-name="Layer 2"><g id="Layer_1-2" data-name="Layer 1"><path d="M75.77,143.59c-31.74,0-31.74,1.15-63.48,1.15C5.5,144.74.51,139.09.51,132.3.51,87.13,0,87.13,0,42A12.36,12.36,0,0,1,12.29,29.59C44,29.59,44,30.82,75.77,30.82c6.79,0,11.29,4.36,11.29,11.14,0,45.17,1.12,45.17,1.12,90.34C88.18,139.09,82.56,143.59,75.77,143.59Z"/><rect class="cls-2" x="11.74" y="44.99" width="64.58" height="84.28"/><rect class="cls-3" x="11.74" y="44.99" width="26.09" height="28.78"/><polygon class="cls-2" points="15.43 67.79 15.43 49.86 21.19 49.86 21.19 55.95 26.56 55.95 26.56 49.86 32.31 49.86 32.31 67.79 26.56 67.79 26.56 60.84 21.19 60.84 21.19 67.79 15.43 67.79"/><path class="cls-2" d="M84.52,16.41c-8.09,2-11.46.9-14,6.38s2.69,38.15-.26,54.32-5,29.74.86,30.4,74.33-.39,77.33-1.74,2.52-24.56,2-28.07S142.23,52.17,144,38.41s1.54-35.09-1.17-35S113.85,9.3,84.52,16.41Z"/><path d="M84.64,16.89a53.9,53.9,0,0,1-5.32.95A18.33,18.33,0,0,0,74.17,19a7.35,7.35,0,0,0-3.45,3.79,8.48,8.48,0,0,0-.58,2.54c-.09.88-.13,1.77-.15,2.66-.06,3.57.14,7.16.33,10.74l.62,10.74A190.87,190.87,0,0,1,71.22,71c-.11,1.8-.29,3.59-.57,5.38l-.93,5.3c-.61,3.53-1.18,7.07-1.59,10.62a41.56,41.56,0,0,0-.2,10.62,8.51,8.51,0,0,0,.77,2.46A3.18,3.18,0,0,0,70.44,107a11.38,11.38,0,0,0,2.56.26l2.68,0c7.17.09,14.34,0,21.51-.06,14.34-.2,28.69-.44,43-1.09,1.78-.09,3.57-.19,5.35-.34a20.76,20.76,0,0,0,2.6-.32c.3-.05.52-.4.71-.77a7.51,7.51,0,0,0,.43-1.21,32.63,32.63,0,0,0,.83-5.25c.17-1.78.27-3.57.33-5.35.13-3.58.14-7.17,0-10.74,0-.9-.07-1.79-.13-2.68a14.45,14.45,0,0,0-.34-2.64c-.42-1.73-.92-3.46-1.38-5.19a155.93,155.93,0,0,1-4.48-21c-.49-3.55-1.12-7.15-.77-10.78s.76-7.12.94-10.71.29-7.15.27-10.72A88.07,88.07,0,0,0,144,7.76a19.34,19.34,0,0,0-.52-2.56A4.28,4.28,0,0,0,143,4.12a.51.51,0,0,0-.2-.2L142.3,4c-1.71.23-3.49.61-5.24,1-3.5.72-7,1.48-10.51,2.24C112.55,10.26,98.59,13.54,84.64,16.89Zm-.23-1c13.94-3.38,27.9-6.69,41.91-9.82,3.5-.77,7-1.54,10.53-2.24,1.77-.34,3.5-.7,5.35-.94l.36,0,.18,0a1.2,1.2,0,0,1,.3,0,1.43,1.43,0,0,1,.82.64,5,5,0,0,1,.59,1.38A20,20,0,0,1,145,7.62a86.86,86.86,0,0,1,.58,10.8q0,5.4-.32,10.78c-.19,3.58-.59,7.2-1,10.72a63.64,63.64,0,0,0,.09,10.69,152.11,152.11,0,0,0,4.59,21c.48,1.73,1,3.45,1.43,5.2a15.4,15.4,0,0,1,.37,2.69c.07.9.11,1.79.15,2.69.15,3.59.17,7.18.08,10.77-.05,1.8-.13,3.59-.28,5.39a33,33,0,0,1-.8,5.37,7.68,7.68,0,0,1-.46,1.32,2.89,2.89,0,0,1-.39.64,1.27,1.27,0,0,1-.7.47,19.18,19.18,0,0,1-2.73.37c-1.8.15-3.59.25-5.38.34-14.34.66-28.69.9-43,1.1-7.18.08-14.35.16-21.53.08L73,108l-1.36-.06a5.15,5.15,0,0,1-1.41-.24,3.9,3.9,0,0,1-2.13-1.94,9.13,9.13,0,0,1-.83-2.66A26,26,0,0,1,67,97.63c.07-1.81.24-3.6.45-5.39.43-3.57,1-7.12,1.65-10.65l1-5.29c.29-1.76.47-3.53.59-5.32a187.62,187.62,0,0,0-.2-21.47l-.6-10.74c-.18-3.58-.37-7.17-.31-10.77,0-.9.06-1.8.16-2.7a8.44,8.44,0,0,1,.63-2.68,8,8,0,0,1,3.64-4,23.82,23.82,0,0,1,5.23-1.51C80.94,16.71,82.68,16.36,84.41,15.92Z"/><path class="cls-2" d="M82.2,15.55c-8.1,2-11.47.91-14,6.39s2.69,38.14-.26,54.32-5.06,29.74.86,30.39,74.33-.39,77.32-1.74,2.53-24.56,2-28.06-8.15-25.54-6.41-39.29,1.53-35.09-1.18-35S111.53,8.45,82.2,15.55Z"/><path d="M82.32,16c-1.77.41-3.55.72-5.33.95a19.22,19.22,0,0,0-5.15,1.18A7.37,7.37,0,0,0,68.39,22a7.93,7.93,0,0,0-.59,2.54c-.09.88-.13,1.78-.16,2.67-.06,3.57.15,7.15.35,10.73l.63,10.74a191,191,0,0,1,.29,21.54c-.12,1.8-.29,3.59-.58,5.38l-.93,5.3c-.61,3.53-1.18,7.06-1.6,10.62a42,42,0,0,0-.2,10.62,8.65,8.65,0,0,0,.77,2.45,3.14,3.14,0,0,0,1.74,1.61,10.43,10.43,0,0,0,2.56.26l2.69.06c7.16.08,14.33,0,21.5-.07,14.34-.19,28.69-.44,43-1.09,1.79-.09,3.58-.18,5.36-.33a20.75,20.75,0,0,0,2.59-.35c.28,0,.5-.39.68-.76a8.93,8.93,0,0,0,.42-1.2,32.73,32.73,0,0,0,.77-5.25c.15-1.78.23-3.57.28-5.35q.15-5.37-.05-10.73c0-.89-.08-1.78-.15-2.67a14.56,14.56,0,0,0-.34-2.59c-.41-1.72-.89-3.46-1.34-5.19a173,173,0,0,1-4.26-21.11c-.49-3.54-1.13-7.14-.78-10.78s.76-7.12.94-10.7.3-7.15.27-10.73a85.93,85.93,0,0,0-.62-10.66,19.34,19.34,0,0,0-.52-2.56,4,4,0,0,0-.46-1.08,1.08,1.08,0,0,0-.19-.21l-.49.06c-1.72.23-3.5.61-5.24,1-3.51.72-7,1.48-10.51,2.25C110.22,9.41,96.26,12.68,82.32,16Zm-.24-1C96,11.68,110,8.37,124,5.25c3.51-.78,7-1.54,10.53-2.24,1.78-.34,3.51-.71,5.35-.95l.36,0,.18,0a1.9,1.9,0,0,1,.31,0,1.48,1.48,0,0,1,.81.64,5.46,5.46,0,0,1,.6,1.38,20.3,20.3,0,0,1,.54,2.71,89.1,89.1,0,0,1,.58,10.81q0,5.4-.32,10.78c-.2,3.58-.6,7.2-1,10.72A64.73,64.73,0,0,0,142,49.76a137.83,137.83,0,0,0,4.81,20.92c.49,1.73,1,3.44,1.46,5.19a13.69,13.69,0,0,1,.38,2.74c.06.9.1,1.8.13,2.7.12,3.59.12,7.19,0,10.78-.06,1.8-.16,3.6-.33,5.39a34.2,34.2,0,0,1-.85,5.38,8.76,8.76,0,0,1-.48,1.32,3.1,3.1,0,0,1-.4.64,1.34,1.34,0,0,1-.72.48,20.76,20.76,0,0,1-2.74.35c-1.79.15-3.58.25-5.38.34-14.34.65-28.68.9-43,1.1-7.17.08-14.34.15-21.52.07l-2.7-.06L69.3,107a4.79,4.79,0,0,1-1.42-.23,3.85,3.85,0,0,1-2.12-1.94,9.25,9.25,0,0,1-.84-2.66,26.81,26.81,0,0,1-.25-5.44c.07-1.8.24-3.6.45-5.38.43-3.58,1-7.12,1.65-10.65l1-5.29c.28-1.76.47-3.54.59-5.32a189.89,189.89,0,0,0-.2-21.47c-.34-7.16-1-14.31-.88-21.51,0-.9.06-1.8.15-2.7A8.71,8.71,0,0,1,68,21.77a8.1,8.1,0,0,1,3.63-4,23.28,23.28,0,0,1,5.23-1.51C78.61,15.85,80.36,15.51,82.08,15.07Z"/><path class="cls-2" d="M80.18,14.28c-8.1,2-10.49,2.49-13.07,8s3.22,38.05.27,54.22-6,27.69-.13,28.34,74.35,1.93,77.34.58.45-24.74-.11-28.25-3.83-25.52-2.1-39.27S141.41.46,138.7.53,109.51,7.18,80.18,14.28Z"/><path d="M80.3,14.77c-1.75.41-3.5.79-5.22,1.22a12.08,12.08,0,0,0-4.78,2.12,12,12,0,0,0-3,4.28A9,9,0,0,0,66.76,25c-.08.88-.11,1.77-.12,2.67,0,3.58.25,7.16.5,10.73l.76,10.74a176.11,176.11,0,0,1,.46,21.55A51.12,51.12,0,0,1,67.78,76l-1,5.31c-.66,3.52-1.35,7-1.89,10.58-.27,1.77-.51,3.54-.62,5.31a13.53,13.53,0,0,0,.45,5.18,3.06,3.06,0,0,0,1.53,1.8,7.67,7.67,0,0,0,2.52.38c1.78.1,3.58.16,5.37.23,7.17.24,14.34.39,21.52.53s14.35.22,21.52.28,14.36.08,21.52-.11a52,52,0,0,0,5.33-.33,1.51,1.51,0,0,0,.48-.15,1.26,1.26,0,0,0,.31-.41,4.88,4.88,0,0,0,.38-1.19,17.24,17.24,0,0,0,.33-2.61,91,91,0,0,0-.22-10.7c-.23-3.58-.57-7.15-1-10.7s-1-7.11-1.36-10.68c-.7-7.15-1.13-14.33-1.23-21.51-.05-.9-.07-1.8-.09-2.7s0-1.8,0-2.7a24.49,24.49,0,0,1,.17-2.71l.28-2.67a93.26,93.26,0,0,0,.34-10.71q-.09-5.35-.62-10.7a77.25,77.25,0,0,0-1.67-10.55,15.86,15.86,0,0,0-.8-2.47,2.92,2.92,0,0,0-.58-.92c-.12-.07,0,0-.27,0s-.4,0-.62.08c-1.73.3-3.49.7-5.24,1.08L122.16,4.68Zm-.23-1L121.91,3.61c3.49-.83,7-1.66,10.5-2.43,1.76-.38,3.5-.77,5.31-1.07.22,0,.47-.06.71-.09a1.76,1.76,0,0,1,.47,0,1.25,1.25,0,0,1,.53.25,3.76,3.76,0,0,1,.88,1.32,18,18,0,0,1,.85,2.64,78.55,78.55,0,0,1,1.64,10.71q.51,5.39.58,10.79a93,93,0,0,1-.4,10.81l-.29,2.67-.15,1.33-.11,1.33c-.19,1.78-.33,3.57-.4,5.36a148,148,0,0,0,1.66,21.43l.75,5.32c.26,1.77.6,3.54.78,5.33.42,3.58.73,7.16,1,10.75a86.6,86.6,0,0,1,.11,10.81,19.49,19.49,0,0,1-.36,2.72,5.64,5.64,0,0,1-.47,1.36,1.79,1.79,0,0,1-.52.64,1.7,1.7,0,0,1-.78.27c-1.84.23-3.61.26-5.42.33-7.18.18-14.36.15-21.54.11s-14.36-.15-21.53-.28-14.36-.28-21.54-.52c-1.79-.06-3.58-.13-5.38-.23l-1.36-.09a4.23,4.23,0,0,1-1.41-.35,3.75,3.75,0,0,1-1.89-2.18,14.16,14.16,0,0,1-.5-5.47c.11-1.81.35-3.6.63-5.37.57-3.56,1.27-7.08,2-10.61l1-5.28a52.14,52.14,0,0,0,.6-5.32,174.89,174.89,0,0,0-.38-21.47C67,42,66.26,34.82,66.23,27.61c0-.9,0-1.8.11-2.7a9.1,9.1,0,0,1,.56-2.69A13,13,0,0,1,70,17.74a14.38,14.38,0,0,1,4.86-2.49C76.58,14.67,78.33,14.24,80.07,13.8Z"/><path class="cls-2" d="M78.1,14c-8.1,2-11.47.9-14,6.39s2.7,38.14-.26,54.31-5,29.74.87,30.4,74.33-.39,77.32-1.74,2.52-24.56,2-28.07S135.8,49.76,137.54,36,139.07.91,136.36,1,107.43,6.9,78.1,14Z"/><path d="M78.21,14.48a53.9,53.9,0,0,1-5.32.95,18,18,0,0,0-5.15,1.19,7.37,7.37,0,0,0-3.45,3.78,8.19,8.19,0,0,0-.58,2.54c-.09.88-.13,1.77-.15,2.66-.06,3.58.14,7.16.32,10.74l.62,10.74a195.69,195.69,0,0,1,.29,21.53c-.11,1.8-.29,3.59-.57,5.38l-.93,5.3c-.61,3.53-1.18,7.07-1.59,10.62a41.56,41.56,0,0,0-.2,10.62,8.51,8.51,0,0,0,.77,2.46A3.22,3.22,0,0,0,64,104.6a10.89,10.89,0,0,0,2.56.26l2.68,0c7.17.09,14.34,0,21.51-.06,14.34-.2,28.69-.44,43-1.09,1.79-.09,3.58-.19,5.35-.34a21.16,21.16,0,0,0,2.61-.32c.29,0,.51-.4.7-.77a6.66,6.66,0,0,0,.43-1.21,32.64,32.64,0,0,0,.84-5.25c.16-1.78.26-3.56.32-5.35q.19-5.37,0-10.74c0-.9-.07-1.79-.12-2.68a13.64,13.64,0,0,0-.35-2.64c-.42-1.73-.92-3.46-1.38-5.19a157.49,157.49,0,0,1-4.48-21,50.47,50.47,0,0,1-.78-10.78c.15-1.83.38-3.57.56-5.36l.51-5.34A74,74,0,0,0,138.48,16a87,87,0,0,0-.64-10.71,20.31,20.31,0,0,0-.54-2.6,4.33,4.33,0,0,0-.5-1.16.72.72,0,0,0-.37-.32.59.59,0,0,0-.26,0l-.32,0c-1.75.24-3.52.62-5.27,1-3.51.73-7,1.51-10.5,2.3C106.09,7.7,92.14,11.05,78.21,14.48Zm-.23-1c14-3.31,27.94-6.54,42-9.59,3.51-.75,7-1.5,10.54-2.2C132.24,1.39,134,1,135.8.79l.34,0a1.39,1.39,0,0,1,.41,0,1.17,1.17,0,0,1,.64.52,4.58,4.58,0,0,1,.55,1.3,20.67,20.67,0,0,1,.53,2.67A86.24,86.24,0,0,1,138.82,16c0,3.59-.2,7.17-.12,10.77a103.45,103.45,0,0,1-.86,10.73,58.65,58.65,0,0,0,.08,10.68,152.14,152.14,0,0,0,4.6,21c.47,1.73,1,3.45,1.42,5.2a14.51,14.51,0,0,1,.37,2.69c.07.9.11,1.79.15,2.69q.22,5.38.08,10.77c0,1.8-.13,3.6-.28,5.39a33,33,0,0,1-.8,5.37,7.39,7.39,0,0,1-.46,1.32,2.89,2.89,0,0,1-.39.64,1.27,1.27,0,0,1-.7.47,19,19,0,0,1-2.73.37c-1.79.15-3.59.25-5.38.34-14.34.66-28.68.9-43,1.1-7.17.08-14.35.16-21.53.08l-2.69-.06-1.36-.06a5.53,5.53,0,0,1-1.41-.23,3.9,3.9,0,0,1-2.12-2,8.77,8.77,0,0,1-.84-2.66,26,26,0,0,1-.25-5.43c.07-1.81.24-3.6.45-5.39.43-3.57,1-7.11,1.65-10.65l1-5.29c.28-1.75.47-3.53.59-5.31A187.77,187.77,0,0,0,64,47.1l-.61-10.74c-.18-3.58-.38-7.17-.31-10.77,0-.9.06-1.8.16-2.7a8.43,8.43,0,0,1,.62-2.68,8.05,8.05,0,0,1,3.64-4,23.28,23.28,0,0,1,5.23-1.51C74.51,14.3,76.26,14,78,13.51Z"/><path class="cls-2" d="M74.63,14.52c-8.1,2-11.46.9-14,6.39s2.69,38.14-.26,54.31-5,29.75.86,30.4,74.33-.39,77.33-1.74,2.52-24.56,2-28.07-4.65-25.19-6.41-39.37c-1.71-13.75,1.53-35-1.17-34.94S104,7.42,74.63,14.52Z"/><path d="M74.75,15c-1.76.4-3.54.71-5.32.94a18.34,18.34,0,0,0-5.14,1.18,7.3,7.3,0,0,0-3.45,3.78,8.06,8.06,0,0,0-.58,2.53c-.1.88-.14,1.77-.16,2.66-.06,3.57.14,7.15.33,10.72l.62,10.73a197.82,197.82,0,0,1,.29,21.51c-.12,1.79-.29,3.58-.57,5.37l-.93,5.29c-.6,3.53-1.18,7.06-1.59,10.61A42.42,42.42,0,0,0,58,100.94a8.62,8.62,0,0,0,.74,2.47,3.22,3.22,0,0,0,1.68,1.67,8.56,8.56,0,0,0,2.54.29l2.68.06c7.16.09,14.32,0,21.48-.06,14.33-.19,28.65-.44,43-1.08,1.78-.09,3.57-.19,5.35-.33a24.37,24.37,0,0,0,2.62-.31c.7,0,1-1,1.24-1.81a30.17,30.17,0,0,0,.83-5.23c.16-1.77.25-3.56.31-5.34.11-3.57.09-7.15,0-10.72a40.3,40.3,0,0,0-.42-5.3L139.07,70l-1.85-10.59c-.6-3.53-.9-7.11-1.48-10.65s-1.46-7-1.89-10.59a79.1,79.1,0,0,1-.76-10.76c0-3.6,0-7.19.17-10.77s.3-7.16.23-10.71a20.29,20.29,0,0,0-.19-2.61A3.86,3.86,0,0,0,133,2.17c-.08-.14-.14-.16-.09-.14l-.55.06c-1.72.24-3.49.62-5.24,1L116.61,5.3C102.63,8.38,88.68,11.66,74.75,15Zm-.23-1c13.92-3.38,27.86-6.68,41.86-9.8,3.5-.77,7-1.55,10.51-2.25,1.77-.34,3.51-.7,5.34-.95l.36,0,.18,0A.9.9,0,0,1,133,1a1.19,1.19,0,0,1,.91.68,4.85,4.85,0,0,1,.42,1.46,21.42,21.42,0,0,1,.19,2.75c.05,3.61-.16,7.19-.28,10.77S134,23.79,134,27.36a77.58,77.58,0,0,0,.7,10.66c.5,3.54.63,7.14,1.21,10.67s1.42,7,2,10.56l1.86,10.58.94,5.29a39.55,39.55,0,0,1,.43,5.4c.13,3.59.12,7.18,0,10.77-.07,1.8-.16,3.59-.33,5.39A31,31,0,0,1,140,102a6.82,6.82,0,0,1-.51,1.31,2.57,2.57,0,0,1-.48.63,1.69,1.69,0,0,1-.76.34,25.75,25.75,0,0,1-2.72.31c-1.79.15-3.58.25-5.37.34-14.32.64-28.65.89-43,1.09-7.16.08-14.33.15-21.5.07L63,106.07,61.61,106a4.51,4.51,0,0,1-1.42-.27,4,4,0,0,1-2-2,9.5,9.5,0,0,1-.81-2.66,27.47,27.47,0,0,1-.22-5.43c.07-1.8.25-3.6.46-5.38.43-3.57,1-7.11,1.65-10.64l1-5.28c.29-1.75.47-3.53.59-5.31a189.57,189.57,0,0,0-.21-21.45L60,36.85c-.18-3.58-.38-7.17-.31-10.76,0-.9.07-1.8.16-2.7a8.46,8.46,0,0,1,.64-2.68,8,8,0,0,1,3.64-4,23.32,23.32,0,0,1,5.22-1.5C71.05,14.82,72.79,14.47,74.52,14Z"/><path class="cls-2" d="M72.51,15.68c-8.09,2-11.46.9-14,6.39s2.69,38.14-.26,54.31-5.05,29.75.86,30.4,74.33-.39,77.33-1.74,2.52-24.56,2-28.07S130.22,51.44,132,37.69s1.53-35.09-1.17-35S101.84,8.58,72.51,15.68Z"/><g class="cls-4"><path class="cls-3" d="M57.14,56l21.11-3.16q4.27-.63,8.57-1l6.88-.6L91.4,12,66.21,17.2,60.5,18.38l-2,1.05L57,21.53l-1.26,3.72.2,7.54L56.41,42Z"/><polygon class="cls-2" points="65.34 45.71 64.67 23.4 71.83 23.18 72.06 30.76 76.6 30.27 76.38 22.7 83.54 22.48 84.21 44.79 77.04 45.01 76.78 36.36 72.24 36.84 72.5 45.49 65.34 45.71"/></g><path d="M72.51,15.68l-.11-.48c-4,1-6.86,1.19-9.12,1.88a7.87,7.87,0,0,0-3,1.58A9.34,9.34,0,0,0,58,21.86a8.78,8.78,0,0,0-.61,2.71,40.54,40.54,0,0,0-.17,4.1c0,8.39,1.4,22.35,1.4,34.32a77.12,77.12,0,0,1-.92,13.3C56.14,84.94,54.8,92.84,54.8,98.5a16.11,16.11,0,0,0,.89,6A4.81,4.81,0,0,0,57,106.42a3.66,3.66,0,0,0,2,.86c.66.07,2,.12,3.84.15s4.26,0,7.06,0c10.49,0,26.52-.22,40.23-.57,6.85-.18,13.12-.39,17.84-.62,2.35-.11,4.32-.24,5.78-.36.73-.07,1.33-.13,1.79-.2a4.18,4.18,0,0,0,1-.23,2,2,0,0,0,.87-.9,10.32,10.32,0,0,0,.89-2.89,88.51,88.51,0,0,0,.92-14.41c0-2.39-.05-4.65-.13-6.47s-.18-3.22-.29-3.94-.62-2.55-1.27-4.91c-2-7-5.4-19.74-5.39-29.84a34.15,34.15,0,0,1,.25-4.39,164.72,164.72,0,0,0,1.12-19.32A92,92,0,0,0,133,7.23a17.5,17.5,0,0,0-.74-3.49,3.47,3.47,0,0,0-.55-1.07,1.2,1.2,0,0,0-.93-.51h0a16.83,16.83,0,0,0-2.15.3C121.34,3.72,98.07,9,72.4,15.2l.11.48.12.49C87.29,12.62,101.18,9.38,111.74,7c5.28-1.18,9.72-2.14,13-2.8,1.65-.34,3-.6,4-.78a19.47,19.47,0,0,1,2-.28h0v0h0v0h0a1.16,1.16,0,0,1,.3.38,7.9,7.9,0,0,1,.62,2.05,74.72,74.72,0,0,1,.84,12.83,162.15,162.15,0,0,1-1.11,19.19,36.53,36.53,0,0,0-.26,4.52c0,6.88,1.55,14.83,3.15,21.46.81,3.31,1.63,6.3,2.28,8.65s1.12,4.08,1.24,4.8.2,2,.28,3.82.13,4,.13,6.43a113.44,113.44,0,0,1-.5,11.4,25.64,25.64,0,0,1-.71,4.17,5.74,5.74,0,0,1-.48,1.24c-.16.3-.32.45-.4.47a3.41,3.41,0,0,1-.77.16c-1.64.24-5.36.47-10.29.68-14.77.63-40.48,1.06-55.21,1.06-2.79,0-5.19,0-7,0s-3.17-.08-3.75-.15a2.61,2.61,0,0,1-1.49-.62,5,5,0,0,1-1.39-2.6,19.07,19.07,0,0,1-.45-4.56c0-5.51,1.33-13.39,2.9-22A77.61,77.61,0,0,0,59.64,63c0-12-1.4-26-1.4-34.32,0-1.55,0-2.9.16-4a8.28,8.28,0,0,1,.52-2.4,8.53,8.53,0,0,1,2-2.87,8.86,8.86,0,0,1,4.35-1.8c1.89-.39,4.28-.7,7.34-1.44Z"/><circle class="cls-3" cx="43.07" cy="136.55" r="2.63"/></g></g></svg>