<svg width="1280" height="720" viewBox="0 0 1280 720" fill="none" xmlns="http://www.w3.org/2000/svg">
<circle cx="686.5" cy="231.5" r="220.5" stroke="#F02762" stroke-width="22"/>
<path d="M1225.33 278.9V319.9H1198V245.9H1088.67V143.4H1070.33V110.4H997.167V143.4H978.833V320.1H965.667V192.8H855.833V344.1H838.333V207.5H845.833V161.3H819.667V115.1H801.167L783.5 87L765.833 115.1H747.333V161.3H721.167V207.5H728.5V320.1H712.167V278.9H684V192.8H637.833V278.9H600.5V254.7H576.667V278.9H558.333V383.5H546.833V237.6H539.5V227.6H530.333V217.5H523.333V207.5H501.833V192.8H485.167V207.5H463.833V217.5H456.833V227.6H447.667V237.6H440.667V305.3H418.833V278.9H393.833V254.7H366.167V278.9H341.333V305.3H335.667V197H270.667V298.4H234.5V327.4H226.5V277.4H221.167V268.8H167.167V277.4H163.5V260.2H131.333V277.4H116.5V373.9H108V263.7H96.1667V221.7H88.1667V206.7H60.5V221.7H11.8333V263.7H0V719.4H98.1667H108H199.167H226.5H234.5H270.667H271H335.667H440.667H441.833H530.333H546.833H558.333H650H663.5H712.167H728.5H759.833H838.333H855.833H920H948.167H965.667H978.833H1088.67H1198H1225.33H1241H1280V278.9H1225.33Z" fill="url(#paint0_linear)"/>
<defs>
<linearGradient id="paint0_linear" x1="647.616" y1="-38.5456" x2="643.512" y2="754.881" gradientUnits="userSpaceOnUse">
<stop stop-color="#F02762"/>
<stop offset="0.0333669" stop-color="#E0255E"/>
<stop offset="0.1542" stop-color="#AA1F4F"/>
<stop offset="0.2764" stop-color="#7B1A43"/>
<stop offset="0.3973" stop-color="#551639"/>
<stop offset="0.5169" stop-color="#381331"/>
<stop offset="0.6346" stop-color="#23112B"/>
<stop offset="0.7498" stop-color="#160F28"/>
<stop offset="0.8594" stop-color="#120F27"/>
</linearGradient>
</defs>
</svg>
