<svg xmlns="http://www.w3.org/2000/svg" viewBox="0 0 177.92 178.95"><defs><style>.cls-1,.cls-3{fill:none;stroke:#f02762;stroke-miterlimit:10;}.cls-1{stroke-width:2px;}.cls-2{fill:#f02762;}</style></defs><g id="Layer_2" data-name="Layer 2"><g id="HEADER"><path class="cls-1" d="M170.86,138.38s1.73,3-8,11.5c-19.09,16.67-42.42,27.62-53.66,27.82s-25.85,3-35.52-15.59-27.62-38.27-31.36-46-12-25.25-15.79-30.38-8.28-25.84-6.9-31.37C15.85,50.84,2.43,35.26,1.45,22.83s-.2-18.75,1-20.13c0,3.16.79,6.51,7.89,8.88s35.91,7.5,35.91,7.5,2.17,25.25,5.13,30.78,3.52,5.27,9.65,5S78,51.39,78,51.39,80.26,70.64,81.69,73h6.92s-1.69,3.44-.43,9a63.39,63.39,0,0,0,3.16,10S104,93.92,114,93.6s18.3-.88,18.3-.88.18,18.53,1.27,25.21S140.23,143,140.23,143Z"/><path class="cls-2" d="M2.43,2.7c0,3.16.79,6.51,7.89,8.88s35.91,7.5,35.91,7.5,2.17,25.25,5.13,30.78,3.52,5.27,9.65,5S78,51.39,78,51.39,80.26,70.64,81.69,73h6.92s-1.69,3.44-.43,9a63.39,63.39,0,0,0,3.16,10S104,93.92,114,93.6s18.3-.88,18.3-.88.18,18.53,1.27,25.21S140.23,143,140.23,143l30.63-4.66s-17.71,0-23.75-3.42S138.73,89.13,139,87.77c-2.22.25-21.44.5-24.4-.49s-10.35-2.09-10.84-6-2.47-18.35-2.47-18.35l-7.63-.37L85,43.54S73.68,47,70.23,46,59.14,35,57.78,25.92,57,14,57,14,18.23,6.7,12.93,4s-8.88-4-9.5-3.8S2.43,2.7,2.43,2.7Z"/><path class="cls-3" d="M61,142.16s10.2,2.71,12.95,2.88,30.26-.68,34.22,0,16.33.24,18.74-1.42,11-2.83,12.91-2"/><path class="cls-3" d="M110.44,145.35s-11.62,8.76-21.6,8.31S67.63,149.37,67.07,151"/><path class="cls-3" d="M92.41,92.13a2.28,2.28,0,0,0-2.26,2.72c.37,2.64,10.13,13.23,7.35,16.87a19.31,19.31,0,0,1-5.07,5.12c-2.19,1.8-8.27,1.9-9.36,2.2s-8.47,1.39-10.86,1.19-10.36,2.29-12.25,2-10.36-2-11.06-7.87,4.48-35.46,5-43,.94-15.8,1.56-16.61"/><path class="cls-3" d="M50.34,97.84S55,99.57,58.21,99s10.88-2.13,12.41-2.13,9.68-2.25,11.08-2.25S91.34,92,91.34,92"/><path class="cls-3" d="M90.48,89.75s-4.6,1.52-6,1.79-6.63,1.59-8.09,1.79-10.82,1.89-11.88,2.2-9.59,1.79-13.92.49"/><path class="cls-3" d="M91.34,97.29a95.85,95.85,0,0,1,3.79,17.3"/><path class="cls-3" d="M22.39,75.35S27,80,30.51,81.26s5,20.87,6,23"/><path class="cls-3" d="M48.14,66.42s1.59-6.37-3.82-9.34S29,51.31,23,53c-.62,2.71-1,9.61,7.59,14.07S48.14,66.42,48.14,66.42Z"/><path class="cls-3" d="M23,53s3.76,7.85,7.42,10,9.17,3.21,17.89.44"/><path class="cls-3" d="M162.83,149.88a12.25,12.25,0,0,1-7.93-3.51c-4-3.63-3.83-7.36-3.83-7.36"/><path class="cls-3" d="M159.36,152.05a22.57,22.57,0,0,1-5.55-2.53c-1.94-1.45-6-6.9-5-9.69"/><path class="cls-2" d="M141.32,62.91c5.84-2.17,8.94-7.56,6.53-7.91s-8.94,2.41-12.38,2.41S137.36,64.38,141.32,62.91Z"/><path class="cls-2" d="M73.63,6.14s9.09,11,25.43,0C77.37-7.2,73.63,6.14,73.63,6.14Z"/><rect class="cls-2" x="171.44" y="104.24" width="6.48" height="6.48"/></g></g></svg>