<svg xmlns="http://www.w3.org/2000/svg" viewBox="0 0 33.74 33.12"><defs><style>.cls-1{fill:none;stroke:#fff;stroke-miterlimit:10;}</style></defs><g id="Layer_2" data-name="Layer 2"><g id="HEADER"><path class="cls-1" d="M26.62,32.62A24.91,24.91,0,0,1,20.77,31Q5.14,24.8.72,8.54a4.29,4.29,0,0,1,1.39-4.8C3,3,3.83,2.06,4.71,1.25,5.91.16,7.05.25,8,1.58c1.42,2,2.77,4.13,4.18,6.18a1,1,0,0,1-.06,1.33c-.74.84-1.4,1.75-2.15,2.57a1.22,1.22,0,0,0-.19,1.56,21,21,0,0,0,10.53,10.3A1.36,1.36,0,0,0,22,23.27c.78-.68,1.63-1.28,2.42-1.95a1.12,1.12,0,0,1,1.55-.1c2,1.35,4.12,2.64,6.16,4a1.93,1.93,0,0,1,.37,3.32c-1,1-2.07,2-3.11,3.05A3.92,3.92,0,0,1,26.62,32.62Z"/></g></g></svg>