<svg xmlns="http://www.w3.org/2000/svg" viewBox="0 0 79 31.29"><defs><style>.cls-1{fill:none;stroke:#fff;stroke-miterlimit:10;}</style></defs><g id="Layer_2" data-name="Layer 2"><g id="HEADER"><path class="cls-1" d="M3,12.4a49.42,49.42,0,0,1,10.54-6Q44.41-6.9,73.64,9.83c3.48,2,5.13,4.73,4.83,8.75-.18,2.4,0,4.81-.16,7.22-.14,3.23-1.9,4.71-5.09,4.14-4.89-.88-9.76-1.91-14.65-2.83a1.88,1.88,0,0,1-1.79-2c-.14-2.23-.51-4.45-.59-6.68A2.44,2.44,0,0,0,54.24,16a41.86,41.86,0,0,0-29.46.33,2.71,2.71,0,0,0-2,2.71c-.13,2.06-.49,4.12-.65,6.18a2.26,2.26,0,0,1-2.06,2.34c-4.79,1-9.55,2.09-14.34,3.08-3.27.67-5.17-.85-5.21-4.18,0-2.9,0-5.8.09-8.71A7.81,7.81,0,0,1,3,12.4Z"/></g></g></svg>