<svg width="8" height="156" viewBox="0 0 8 156" fill="none" xmlns="http://www.w3.org/2000/svg">
<path d="M8 4C8 6.20914 6.20914 8 4 8C1.79086 8 0 6.20914 0 4C0 1.79086 1.79086 0 4 0C6.20914 0 8 1.79086 8 4Z" fill="#F02762"/>
<path d="M8 78C8 80.2091 6.20914 82 4 82C1.79086 82 0 80.2091 0 78C0 75.7909 1.79086 74 4 74C6.20914 74 8 75.7909 8 78Z" fill="#F02762"/>
<path d="M8 152C8 154.209 6.20914 156 4 156C1.79086 156 0 154.209 0 152C0 149.791 1.79086 148 4 148C6.20914 148 8 149.791 8 152Z" fill="#F02762"/>
</svg>
