<svg xmlns="http://www.w3.org/2000/svg" viewBox="0 0 82.67 82.67"><defs><style>.cls-1{fill:none;stroke:#b90643;stroke-miterlimit:10;stroke-width:2px;}</style></defs><g id="Layer_2" data-name="Layer 2"><g id="HEADER"><path class="cls-1" d="M77.63,23.77l.06.12a40.94,40.94,0,1,1-.06-.12"/><path class="cls-1" d="M63.42,75.07c-2-.5.73-2,.63-3.93S66.53,67,68.17,66s5.54-6.05,4.38-8.48S73,46,72.29,44.86s-3.39-4.66-2.77-5.78,4.66-3.73,7.47-.61S81.66,42,81.66,42"/><path class="cls-1" d="M8.28,64.44s-.82-16.9,1.09-21S23,39.75,23.3,37.58s6.15-5.49,5.76-6.32-1.07-5.74-2.67-8-6.81-5-6.81-5L20.13,7"/><path class="cls-1" d="M65.16,8.79c-1.6.85-2,9.91-.81,9.34S70.24,21,72,21.77s5.71,2.12,5.71,2.12"/><path class="cls-1" d="M78.88,26.62S72.1,24.9,70.7,23.91s-6-4.57-6.8-4-2.53-3.05-2.52-3.85.93-8,1.46-8.88"/><path class="cls-1" d="M48.94,44.91a2.17,2.17,0,0,0-2.1-.1c-1.35.62-4.35,2-5.21,2.53-1.12.68-1.07,12.2-3.32,13.57s.22,7.35,2,6.5S53.42,48,48.94,44.91Z"/></g></g></svg>